<svg width="29" height="29" viewBox="0 0 29 29" fill="none" xmlns="http://www.w3.org/2000/svg">
<circle cx="14.5" cy="14.5" r="14.5" fill="#FD6F65"/>
<path d="M10.1499 10.73H11.1649H19.2849" stroke="white" stroke-linecap="round" stroke-linejoin="round"/>
<path d="M12.6871 10.73V9.715C12.6871 9.4458 12.794 9.18763 12.9843 8.99728C13.1747 8.80693 13.4329 8.7 13.7021 8.7H15.7321C16.0012 8.7 16.2594 8.80693 16.4498 8.99728C16.6401 9.18763 16.7471 9.4458 16.7471 9.715V10.73M18.2696 10.73V17.835C18.2696 18.1042 18.1626 18.3624 17.9723 18.5527C17.7819 18.7431 17.5237 18.85 17.2546 18.85H12.1796C11.9104 18.85 11.6522 18.7431 11.4618 18.5527C11.2715 18.3624 11.1646 18.1042 11.1646 17.835V10.73H18.2696Z" stroke="white" stroke-linecap="round" stroke-linejoin="round"/>
<path d="M13.7026 13.2675V16.3125" stroke="white" stroke-linecap="round" stroke-linejoin="round"/>
<path d="M15.7319 13.2675V16.3125" stroke="white" stroke-linecap="round" stroke-linejoin="round"/>
</svg>
